Silent House 2011 BRRip x264 AAC-UNiQUE 


.........why be the same as everyone else when YOU can be UNiQUE.........


General
Complete name : Silent House 2011 BRRip x264 AAC-UNiQUE.mp4
Format : MPEG-4
Format profile : Base Media
Codec ID : isom
File size : 700 MiB
Duration : 1h 25mn
Overall bit rate mode : Variable
Overall bit rate : 1 140 Kbps
Encoded date : UTC 2012-07-10 17:09:38

Video
ID : 1
Format : AVC
Format/Info : Advanced Video Codec
Format profile : High@L4.1
Format settings, CABAC : Yes
Format settings, ReFrames : 3 frames
Codec ID : avc1
Codec ID/Info : Advanced Video Coding
Duration : 1h 25mn
Bit rate mode : Variable
Bit rate : 844 Kbps
Maximum bit rate : 40.0 Mbps
Width : 720 pixels
Height : 386 pixels
Display aspect ratio : 1.85:1
Frame rate mode : Constant
Frame rate : 23.976 fps
Color space : YUV
Chroma subsampling : 4:2:0
Bit depth : 8 bits
Scan type : Progressive
Bits/(Pixel*Frame) : 0.127
Stream size : 518 MiB (74%)
Writing library : x264 core 125 r2200 999b753

Audio
ID : 2
Format : AAC
Format/Info : Advanced Audio Codec
Format profile : LC
Codec ID : 40
Duration : 1h 25mn
Bit rate mode : Variable
Bit rate : 288 Kbps
Maximum bit rate : 372 Kbps
Channel(s) : 6 channels
Channel positions : Front: L C R, Side: L R, LFE
Sampling rate : 48.0 KHz
Compression mode : Lossy
Stream size : 180 MiB (26%)
Language : English
Encoded date : UTC 2012-07-10 17:10:11

Source : 720p.BluRay.x264-Japhson - Thanks!

Storyline
Trapped inside her family's lakeside retreat, a young woman finds she is unable 
to contact the outside world as events become increasingly ominous in and around the house.

iMDB: http://www.imdb.com/title/tt1767382/


Poster:

 
http://i.imgur.com/eDkqB.jpg


Screenshots:

 
http://i.imgur.com/RCPWa.jpg

 
http://i.imgur.com/1c9Ki.jpg

 
http://i.imgur.com/f8MOp.jpg


ENJOY!